<svg width="51" height="51" viewBox="0 0 51 51" fill="none" xmlns="http://www.w3.org/2000/svg">
<g clip-path="url(#clip0)">
<path d="M24.7004 7.15551L23.6179 5.70257C23.3402 5.32977 22.8756 5.14614 22.4181 5.2283C21.9746 5.30263 21.6116 5.62208 21.4815 6.05253C21.1237 7.23359 21.2975 8.51191 21.9579 9.55441C22.6183 10.5969 23.6997 11.3004 24.9204 11.4815L25.6666 12.4883L22.381 14.9361C21.546 15.5579 20.9684 16.4649 20.7582 17.4846L19.839 21.9309C19.6889 22.6592 19.2763 23.3069 18.6797 23.7509L18.2415 24.0774C17.602 23.6486 16.7622 23.6682 16.1434 24.1262L7.86611 30.2928C7.32828 30.6935 7.21711 31.4543 7.6178 31.9921L14.8727 41.7301C15.2734 42.268 16.0342 42.3791 16.572 41.9784L24.8494 35.8117C25.4643 35.3497 25.7226 34.5511 25.495 33.8164L25.8684 33.5382C26.2469 33.2571 26.6852 33.0673 27.1492 32.9838L30.802 32.3317C31.4514 32.2149 32.0649 31.9493 32.5945 31.5558L37.2649 28.0763L38.3923 29.5623C38.061 31.8789 39.6645 34.0274 41.9796 34.3688C44.2947 34.7102 46.4502 33.1161 46.8017 30.8026C47.1532 28.489 45.5685 26.3266 43.2565 25.9649L42.0544 24.3809C42.7217 23.5632 42.7868 22.4088 42.2158 21.5212C41.9237 21.0746 41.4899 20.7391 40.9843 20.5685C41.5359 19.7582 41.5472 18.6961 41.0131 17.8743C40.6696 17.3521 40.1361 16.9845 39.5257 16.8495C39.8058 16.1928 39.7788 15.4455 39.4521 14.8106C39.1256 14.1758 38.5332 13.7194 37.8361 13.5654C38.1246 12.8887 38.0868 12.1173 37.7337 11.4722C37.3807 10.827 36.7513 10.3794 36.026 10.2575C35.3687 10.1448 34.6938 10.3063 34.1588 10.7044L32.6806 11.8057L29.7598 7.84877C29.927 6.63128 29.5579 5.40107 28.7481 4.47666C27.9382 3.55226 26.7673 3.02452 25.5383 3.03012C25.0887 3.03162 24.6787 3.28805 24.4806 3.69169C24.2709 4.10658 24.314 4.60435 24.5917 4.97708L25.6335 6.37546C25.8402 6.63388 25.8227 7.00557 25.5926 7.24335C25.4574 7.36525 25.2737 7.41838 25.0942 7.38748C24.9367 7.36743 24.7943 7.28352 24.7004 7.15551ZM8.59165 31.2666L16.8689 25.0999C17.1378 24.8996 17.5183 24.9551 17.7186 25.2241L24.2481 33.9883C24.4484 34.2572 24.3929 34.6376 24.1239 34.838L15.8466 41.0047L8.59165 31.2666ZM42.4431 26.9056C42.5471 27.0424 42.7041 27.1287 42.8753 27.1432C44.131 27.2577 45.1853 28.1366 45.524 29.3512C45.8626 30.5659 45.4152 31.8634 44.3998 32.6111C43.3844 33.3589 42.0125 33.401 40.9531 32.7171C39.8937 32.0331 39.3673 30.7655 39.6307 29.5324C39.6669 29.3617 39.6277 29.1836 39.5234 29.0438L39.5201 29.0394L38.2387 27.3509L41.1406 25.1889L42.4431 26.9056ZM34.8843 11.6782C35.1516 11.4785 35.4894 11.3975 35.8183 11.4544C36.1471 11.5114 36.4381 11.7011 36.6227 11.9791C36.9645 12.5579 36.8032 13.3022 36.2525 13.6875L35.8484 13.9886C35.5795 14.1889 35.5239 14.5693 35.7242 14.8383C35.9246 15.1072 36.3049 15.1627 36.5739 14.9624C36.8412 14.7626 37.179 14.6817 37.5079 14.7386C37.8367 14.7955 38.1277 14.9853 38.3124 15.2633C38.6541 15.842 38.4928 16.5863 37.9421 16.9716L37.538 17.2727C37.2691 17.473 37.2135 17.8535 37.4138 18.1224C37.6142 18.3913 37.9946 18.4469 38.2635 18.2465C38.5302 18.0464 38.868 17.9658 39.1964 18.024C39.5253 18.0807 39.8165 18.2699 40.002 18.5474C40.3437 19.1261 40.1824 19.8705 39.6317 20.2558L38.7407 20.9196C38.4718 21.1199 38.4162 21.5004 38.6165 21.7693C38.8168 22.0382 39.1972 22.0938 39.4662 21.8934C39.7335 21.6936 40.0713 21.6127 40.4002 21.6696C40.729 21.7265 41.02 21.9163 41.2046 22.1943C41.5464 22.773 41.3851 23.5174 40.8344 23.9027L31.869 30.582C31.4906 30.8631 31.0523 31.0529 30.5883 31.1364L26.9355 31.7885C26.2861 31.9053 25.6725 32.1709 25.143 32.5644L24.8591 32.7759L19.0552 24.9855L19.4052 24.7246C20.2403 24.1028 20.8178 23.1959 21.0281 22.1762L21.9473 17.7299C22.0973 17.0016 22.51 16.3538 23.1066 15.9099L26.3883 13.4649L27.8291 15.4202L25.8814 16.8712C25.6126 17.0715 25.557 17.4519 25.7573 17.7208C25.9577 17.9898 26.3381 18.0453 26.607 17.845L34.8843 11.6783L34.8843 11.6782ZM26.6073 5.64996L25.5441 4.24627C26.5044 4.2454 27.4088 4.69736 27.9845 5.4659C28.4998 6.15571 28.6952 7.03321 28.5213 7.87653C28.486 8.04575 28.5245 8.22194 28.6271 8.36102L31.7067 12.5313L28.8029 14.6947L25.7407 10.5478C25.6329 10.411 25.4749 10.323 25.3017 10.3032C24.3921 10.2316 23.5636 9.75276 23.0475 9.00026C22.5315 8.24776 22.3833 7.30238 22.6441 6.42807L23.7265 7.88096C24.0105 8.26848 24.4396 8.52423 24.9156 8.58971C25.4505 8.67469 25.9953 8.51412 26.3987 8.15255C27.1016 7.49619 27.1918 6.41366 26.6073 5.64996Z" fill="#041E42"/>
<path d="M41.1367 31.249C41.7377 32.0557 42.8789 32.2225 43.6857 31.6214C44.4924 31.0204 44.6591 29.8793 44.0581 29.0725C43.4571 28.2658 42.3159 28.099 41.5092 28.7C40.7025 29.3011 40.5357 30.4423 41.1367 31.249ZM43.0843 29.798C43.2846 30.0669 43.2291 30.4474 42.9601 30.6477C42.6912 30.8481 42.3108 30.7925 42.1105 30.5236C41.9101 30.2546 41.9657 29.8742 42.2346 29.6739C42.5036 29.4735 42.884 29.5291 43.0843 29.798Z" fill="#041E42"/>
<path d="M18.1962 27.8968C17.5952 27.0901 16.454 26.9233 15.6472 27.5243C14.8405 28.1253 14.6737 29.2665 15.2748 30.0733C15.8758 30.8801 17.017 31.0468 17.8237 30.4457C18.6304 29.8448 18.7972 28.7036 18.1962 27.8968ZM16.2486 29.3478C16.0482 29.0789 16.1038 28.6985 16.3727 28.4981C16.6416 28.2978 17.022 28.3534 17.2224 28.6223C17.4227 28.8912 17.3671 29.2716 17.0982 29.4719C16.8293 29.6723 16.4489 29.6167 16.2486 29.3478Z" fill="#041E42"/>
</g>
<defs>
<clipPath id="clip0">
<rect width="36.4344" height="36.4344" fill="white" transform="translate(29.2173) rotate(53.3134)"/>
</clipPath>
</defs>
</svg>
