<svg width="50" height="50" viewBox="0 0 50 50" fill="none" xmlns="http://www.w3.org/2000/svg">
<path d="M29.5834 4.16675H24.5834C23.8925 4.16675 23.3334 4.72593 23.3334 5.41675C23.3334 6.10757 23.8925 6.66675 24.5834 6.66675H29.5834C30.2742 6.66675 30.8334 6.10757 30.8334 5.41675C30.8334 4.72593 30.2742 4.16675 29.5834 4.16675Z" fill="white"/>
<path d="M35 0H15C12.2434 0 10 2.24336 10 5V45C10 47.7566 12.2434 50 15 50H35C37.7567 50 40 47.7566 40 45V5C40 2.24336 37.7567 0 35 0ZM37.5 45C37.5 46.3809 36.3809 47.5 35 47.5H15C13.6192 47.5 12.5 46.3809 12.5 45V5C12.5 3.61914 13.6192 2.5 15 2.5H35C36.3809 2.5 37.5 3.61914 37.5 5V45Z" fill="white"/>
<path d="M25 45.8333C26.3807 45.8333 27.5 44.714 27.5 43.3333C27.5 41.9526 26.3807 40.8333 25 40.8333C23.6193 40.8333 22.5 41.9526 22.5 43.3333C22.5 44.714 23.6193 45.8333 25 45.8333Z" fill="white"/>
<path d="M20.4167 6.66675C21.107 6.66675 21.6667 6.10711 21.6667 5.41675C21.6667 4.72639 21.107 4.16675 20.4167 4.16675C19.7263 4.16675 19.1667 4.72639 19.1667 5.41675C19.1667 6.10711 19.7263 6.66675 20.4167 6.66675Z" fill="white"/>
</svg>
