<svg width="79" height="45" viewBox="0 0 79 45" fill="none" xmlns="http://www.w3.org/2000/svg">
<path d="M73.8699 2.15002C73.8699 0.960024 74.8399 0 76.0199 0C77.2099 0 78.1699 0.970024 78.1699 2.15002C78.1699 3.33002 77.1999 4.29999 76.0199 4.29999C74.8299 4.29999 73.8699 3.34002 73.8699 2.15002Z" fill="#F6BE00"/>
<path d="M55.3999 2.15002C55.3999 0.960024 56.3699 0 57.5499 0C58.7399 0 59.6999 0.970024 59.6999 2.15002C59.6999 3.33002 58.7299 4.29999 57.5499 4.29999C56.3699 4.29999 55.3999 3.34002 55.3999 2.15002Z" fill="#F6BE00"/>
<path d="M55.3999 22.4C55.3999 21.21 56.3699 20.25 57.5499 20.25C58.7399 20.25 59.6999 21.22 59.6999 22.4C59.6999 23.59 58.7299 24.55 57.5499 24.55C56.3699 24.56 55.3999 23.59 55.3999 22.4Z" fill="#F6BE00"/>
<path d="M36.9299 2.15002C36.9299 0.960024 37.8999 0 39.0799 0C40.2699 0 41.2299 0.970024 41.2299 2.15002C41.2299 3.33002 40.2599 4.29999 39.0799 4.29999C37.8999 4.29999 36.9299 3.34002 36.9299 2.15002Z" fill="#F6BE00"/>
<path d="M36.9299 22.4C36.9299 21.21 37.8999 20.25 39.0799 20.25C40.2699 20.25 41.2299 21.22 41.2299 22.4C41.2299 23.59 40.2599 24.55 39.0799 24.55C37.8999 24.56 36.9299 23.59 36.9299 22.4Z" fill="#F6BE00"/>
<path d="M36.9299 42.65C36.9299 41.46 37.8999 40.5 39.0799 40.5C40.2699 40.5 41.2299 41.47 41.2299 42.65C41.2299 43.84 40.2599 44.8 39.0799 44.8C37.8999 44.81 36.9299 43.84 36.9299 42.65Z" fill="#F6BE00"/>
<path d="M18.4699 2.15002C18.4699 0.960024 19.4399 0 20.6199 0C21.8099 0 22.7699 0.970024 22.7699 2.15002C22.7699 3.33002 21.7999 4.29999 20.6199 4.29999C19.4299 4.29999 18.4699 3.34002 18.4699 2.15002Z" fill="#F6BE00"/>
<path d="M18.4699 22.4C18.4699 21.21 19.4399 20.25 20.6199 20.25C21.8099 20.25 22.7699 21.22 22.7699 22.4C22.7699 23.59 21.7999 24.55 20.6199 24.55C19.4299 24.56 18.4699 23.59 18.4699 22.4Z" fill="#F6BE00"/>
<path d="M-9.15527e-05 2.15002C-9.15527e-05 3.33744 0.96249 4.29999 2.1499 4.29999C3.33731 4.29999 4.29993 3.33744 4.29993 2.15002C4.29993 0.962612 3.33731 0 2.1499 0C0.96249 0 -9.15527e-05 0.962612 -9.15527e-05 2.15002Z" fill="#F6BE00"/>
</svg>
