<svg width="51" height="51" viewBox="0 0 51 51" fill="none" xmlns="http://www.w3.org/2000/svg">
<path d="M9.56247 27.625C6.63425 27.625 4.25 30.0092 4.25 32.9375C4.25 35.8657 6.63425 38.25 9.56247 38.25C12.4907 38.25 14.8749 35.8658 14.8749 32.9376C14.8749 30.0093 12.4907 27.625 9.56247 27.625ZM9.56247 36.1251C7.80506 36.1251 6.37497 34.695 6.37497 32.9376C6.37497 31.1802 7.80506 29.7501 9.56247 29.7501C11.3199 29.7501 12.75 31.1802 12.75 32.9376C12.75 34.6949 11.3199 36.1251 9.56247 36.1251Z" fill="white"/>
<path d="M41.4375 27.625C38.5092 27.625 36.125 30.0092 36.125 32.9375C36.125 35.8657 38.5092 38.25 41.4375 38.25C44.3657 38.25 46.7499 35.8658 46.7499 32.9376C46.7499 30.0093 44.3657 27.625 41.4375 27.625ZM41.4375 36.1251C39.6801 36.1251 38.25 34.695 38.25 32.9376C38.25 31.1802 39.6801 29.7501 41.4375 29.7501C43.1949 29.7501 44.625 31.1802 44.625 32.9376C44.625 34.6949 43.1949 36.1251 41.4375 36.1251Z" fill="white"/>
<path d="M44.625 21.25H42.8273C42.1706 21.25 41.5267 21.0248 41.0125 20.6125L32.64 13.9144C31.7008 13.1644 30.5214 12.75 29.3207 12.75H13.9613C12.1805 12.75 10.5294 13.634 9.54128 15.1151L7.73288 17.8309C7.191 18.6405 6.28575 19.125 5.31247 19.125C2.38425 19.125 0 21.5092 0 24.4375V28.6875C0 31.6157 2.38425 34 5.31247 34C5.89897 34 6.375 33.5239 6.375 32.9374C6.375 32.3509 5.89897 31.875 5.31247 31.875C3.55506 31.875 2.12497 30.4449 2.12497 28.6875V24.4375C2.12497 22.6801 3.55506 21.25 5.31247 21.25C6.99975 21.25 8.56372 20.4128 9.50084 19.0081L11.3092 16.2944C11.9021 15.4062 12.8945 14.8749 13.9613 14.8749H29.3207C30.0432 14.8749 30.7487 15.1235 31.314 15.574L39.6865 22.2699C40.5726 22.9818 41.6903 23.3748 42.8293 23.3748H44.625C47.7424 23.3748 48.875 26.5517 48.875 28.6873C48.875 30.7804 47.2728 31.8748 45.6875 31.8748C45.101 31.8748 44.625 32.3508 44.625 32.9373C44.625 33.5238 45.101 33.9999 45.6875 33.9999C48.7157 34 51 31.7156 51 28.6875C51 25.0813 48.7667 21.25 44.625 21.25Z" fill="white"/>
<path d="M37.1875 31.875H13.8125C13.226 31.875 12.75 32.351 12.75 32.9375C12.75 33.524 13.226 34.0001 13.8125 34.0001H37.1876C37.7741 34.0001 38.2501 33.524 38.2501 32.9375C38.2501 32.351 37.774 31.875 37.1875 31.875Z" fill="white"/>
<path d="M35.0626 21.25H25.5001V18.0625C25.5001 17.476 25.024 16.9999 24.4375 16.9999C23.851 16.9999 23.375 17.476 23.375 18.0625V22.3125C23.375 22.899 23.851 23.375 24.4375 23.375H35.0626C35.6491 23.375 36.1251 22.899 36.1251 22.3125C36.1251 21.726 35.6491 21.25 35.0626 21.25Z" fill="white"/>
<path d="M20.1875 21.25H13.4066L14.7645 18.5385C15.0258 18.0137 14.8134 17.3762 14.2884 17.1126C13.7614 16.8512 13.1261 17.0616 12.8625 17.5886L10.7376 21.8387C10.5718 22.1659 10.5909 22.559 10.7843 22.8714C10.9776 23.1838 11.3198 23.375 11.6874 23.375H20.1874C20.7739 23.375 21.2499 22.899 21.2499 22.3125C21.2499 21.726 20.774 21.25 20.1875 21.25Z" fill="white"/>
<path d="M28.6875 25.5H26.5625C25.976 25.5 25.5 25.976 25.5 26.5625C25.5 27.149 25.976 27.6251 26.5625 27.6251H28.6875C29.274 27.6251 29.75 27.149 29.75 26.5625C29.75 25.976 29.274 25.5 28.6875 25.5Z" fill="white"/>
</svg>
