<svg width="205" height="113" viewBox="0 0 205 113" fill="none" xmlns="http://www.w3.org/2000/svg">
<path d="M204.294 13.63C201.509 0.0244012 168.911 0.0243468 149.703 0.0244141L145.365 5.12123C161.666 5.12123 194.69 5.79527 195.827 13.63C197.328 23.9676 151.059 29.0468 143.722 42.6944C136.384 56.3421 161.666 72.6435 161.666 72.6435H178.599C178.599 72.6435 150.602 56.8055 155.558 45.643C160.514 34.4806 207.752 30.5211 204.294 13.63Z" fill="#F6BE00"/>
<path d="M141.405 9.75586H141.405L135.929 16.0742C145.154 16.0742 158.147 15.0633 155.643 19.6548C153.138 24.2462 124.466 29.5956 113.773 42.1059C103.08 54.6163 108.002 72.6868 108.002 72.6868H124.556C124.556 72.6868 115.374 56.8909 123.209 45.9812C131.043 35.0715 161.707 29.5537 165.415 19.6548C169.123 9.75587 150.167 9.75586 141.405 9.75586Z" fill="#F6BE00"/>
<path d="M12.5076 112.1C12.2963 112.1 12.1484 112.005 12.0638 111.815L8.10206 102.783C8.0598 102.699 7.99642 102.656 7.9119 102.656H4.96434C4.85869 102.656 4.80586 102.709 4.80586 102.815V111.72C4.80586 111.826 4.76361 111.921 4.67909 112.005C4.6157 112.069 4.53118 112.1 4.42553 112.1H0.380331C0.274683 112.1 0.1796 112.069 0.0950826 112.005C0.0316942 111.921 0 111.826 0 111.72V90.0421C0 89.9364 0.0316942 89.8519 0.0950826 89.7885C0.1796 89.704 0.274683 89.6618 0.380331 89.6618H9.78186C11.1341 89.6618 12.3174 89.9364 13.3316 90.4858C14.367 91.0352 15.412 91.817 15.9614 92.8312C16.5319 93.8454 16.8172 95.0181 16.8172 96.3492C16.8172 97.786 16.458 99.0221 15.7396 100.057C15.0211 101.072 13.7648 101.79 12.4759 102.213C12.3702 102.255 12.3385 102.329 12.3808 102.434L16.9439 111.657C16.9862 111.741 17.0073 111.805 17.0073 111.847C17.0073 112.016 16.8911 112.1 16.6587 112.1H12.5076ZM4.96434 93.4967C4.85869 93.4967 4.80586 93.5496 4.80586 93.6552V99.0749C4.80586 99.1806 4.85869 99.2334 4.96434 99.2334H9.11628C10.0037 99.2334 10.7221 98.9693 11.2715 98.441C11.842 97.9128 12.1272 97.2261 12.1272 96.3809C12.1272 95.5357 11.842 94.849 11.2715 94.3208C10.7221 93.7714 10.0037 93.4967 9.11628 93.4967H4.96434Z" fill="white"/>
<path d="M62.3166 112.196C60.6685 112.196 59.2106 111.858 57.9428 111.182C56.6962 110.506 55.7243 109.566 55.027 108.361C54.3297 107.136 53.9811 105.731 53.9811 104.146V97.3634C53.9811 95.7999 54.3297 94.4159 55.027 93.2115C55.7243 92.0071 56.6962 91.0774 57.9428 90.4224C59.2106 89.7463 60.6685 89.4082 62.3166 89.4082C63.9859 89.4082 65.4438 89.7463 66.6905 90.4224C67.9582 91.0774 68.9407 92.0071 69.638 93.2115C70.3353 94.4159 70.6839 95.7999 70.6839 97.3634V104.146C70.6839 105.731 70.3353 107.136 69.638 108.361C68.9407 109.587 67.9582 110.538 66.6905 111.214C65.4438 111.869 63.9859 112.196 62.3166 112.196ZM62.3166 108.361C63.4788 108.361 64.419 107.992 65.1374 107.252C65.8558 106.512 66.215 105.53 66.215 104.304V97.3317C66.215 96.1062 65.8558 95.1237 65.1374 94.3842C64.4402 93.6235 63.4999 93.2432 62.3166 93.2432C61.1545 93.2432 60.2143 93.6235 59.4959 94.3842C58.7986 95.1237 58.45 96.1062 58.45 97.3317V104.304C58.45 105.53 58.7986 106.512 59.4959 107.252C60.2143 107.992 61.1545 108.361 62.3166 108.361Z" fill="white"/>
<path d="M116.309 112.196C114.661 112.196 113.203 111.858 111.936 111.182C110.689 110.506 109.717 109.566 109.02 108.361C108.322 107.136 107.974 105.731 107.974 104.146V97.3634C107.974 95.7999 108.322 94.4159 109.02 93.2115C109.717 92.0071 110.689 91.0774 111.936 90.4224C113.203 89.7463 114.661 89.4082 116.309 89.4082C117.979 89.4082 119.437 89.7463 120.683 90.4224C121.951 91.0774 122.933 92.0071 123.631 93.2115C124.328 94.4159 124.677 95.7999 124.677 97.3634V104.146C124.677 105.731 124.328 107.136 123.631 108.361C122.933 109.587 121.951 110.538 120.683 111.214C119.437 111.869 117.979 112.196 116.309 112.196ZM116.309 108.361C117.472 108.361 118.412 107.992 119.13 107.252C119.849 106.512 120.208 105.53 120.208 104.304V97.3317C120.208 96.1062 119.849 95.1237 119.13 94.3842C118.433 93.6235 117.493 93.2432 116.309 93.2432C115.147 93.2432 114.207 93.6235 113.489 94.3842C112.791 95.1237 112.443 96.1062 112.443 97.3317V104.304C112.443 105.53 112.791 106.512 113.489 107.252C114.207 107.992 115.147 108.361 116.309 108.361Z" fill="white"/>
<path d="M162.176 112.1C162.07 112.1 161.975 112.069 161.89 112.005C161.827 111.921 161.795 111.826 161.795 111.72V90.0421C161.795 89.9364 161.827 89.8519 161.89 89.7885C161.975 89.704 162.07 89.6618 162.176 89.6618H165.884C165.99 89.6618 166.074 89.704 166.137 89.7885C166.222 89.8519 166.264 89.9364 166.264 90.0421V107.854C166.264 107.96 166.317 108.013 166.423 108.013H178.135C178.24 108.013 178.325 108.055 178.388 108.139C178.473 108.203 178.515 108.287 178.515 108.393V111.72C178.515 111.826 178.473 111.921 178.388 112.005C178.325 112.069 178.24 112.1 178.135 112.1H162.176Z" fill="white"/>
<path fill-rule="evenodd" clip-rule="evenodd" d="M114.54 0L0.0419922 72.6432H16.7646L121.277 0H114.54Z" fill="#F6BE00"/>
<path fill-rule="evenodd" clip-rule="evenodd" d="M136.261 0L53.959 72.6432H70.6816L142.998 0H136.261Z" fill="#F6BE00"/>
</svg>
