<svg width="46" height="37" viewBox="0 0 46 37" fill="none" xmlns="http://www.w3.org/2000/svg">
<path d="M15.5 12C11.8653 12 8.9082 14.9571 8.9082 18.5918C8.9082 22.2265 11.8653 25.1836 15.5 25.1836C19.1347 25.1836 22.0918 22.2265 22.0918 18.5918C22.0918 14.9571 19.1347 12 15.5 12ZM15.5 23.7188C12.673 23.7188 10.373 21.4188 10.373 18.5918C10.373 15.7648 12.673 13.4648 15.5 13.4648C18.327 13.4648 20.627 15.7648 20.627 18.5918C20.627 21.4188 18.327 23.7188 15.5 23.7188Z" fill="white"/>
<path d="M17.812 26.6973H12.7016C8.47468 26.6973 4.30317 28.2574 1.51367 31.6024V37H29V31.6024C26.2145 28.2622 22.0442 26.6973 17.812 26.6973ZM27.1676 35.5352H27.1676H3.34609V32.0506C5.48581 29.6115 8.96259 28.1621 12.7016 28.1621H17.8121C21.5511 28.1621 25.0279 29.6115 27.1676 32.0506V35.5352Z" fill="white"/>
<g clip-path="url(#clip0)">
<path d="M45.3857 9.88475C45.0459 9.88475 44.7704 10.1602 44.7704 10.5C44.7704 15.6112 40.6121 19.7695 35.501 19.7695C30.3897 19.7695 26.2315 15.6112 26.2315 10.5C26.2315 5.38876 30.3897 1.2305 35.501 1.2305C37.0595 1.2305 38.5756 1.61748 39.9289 2.35486L39.1598 3.12402C38.9838 3.29997 38.9312 3.56456 39.0264 3.79449C39.1216 4.02439 39.3459 4.1743 39.5948 4.1743H42.5386C42.8784 4.1743 43.1538 3.89884 43.1538 3.55907V0.615269C43.1538 0.366429 43.0039 0.142116 42.774 0.0468781C42.544 -0.0484007 42.2794 0.00426308 42.1035 0.18026L40.8314 1.45243C39.2199 0.501 37.3877 7.95029e-05 35.5009 7.95029e-05C32.6963 7.95029e-05 30.0595 1.09228 28.0763 3.07541C26.0931 5.05863 25.001 7.69539 25.001 10.5C25.001 13.3047 26.0931 15.9414 28.0763 17.9246C30.0595 19.9078 32.6963 21 35.5009 21C38.3055 21 40.9423 19.9078 42.9255 17.9246C44.9087 15.9414 46.0008 13.3047 46.0008 10.5C46.0009 10.1602 45.7254 9.88475 45.3857 9.88475Z" fill="white"/>
<path d="M39.4539 9.88472H36.1153V6.54608C36.1153 6.20631 35.8398 5.93085 35.5001 5.93085C35.1603 5.93085 34.8848 6.20631 34.8848 6.54608V10.4999C34.8848 10.8397 35.1603 11.1152 35.5001 11.1152H39.4539C39.7937 11.1152 40.0691 10.8397 40.0691 10.4999C40.0691 10.1602 39.7937 9.88472 39.4539 9.88472Z" fill="white"/>
</g>
<defs>
<clipPath id="clip0">
<rect width="21" height="21" fill="white" transform="translate(25)"/>
</clipPath>
</defs>
</svg>
