<svg width="48" height="48" viewBox="0 0 48 48" fill="none" xmlns="http://www.w3.org/2000/svg">
<g clip-path="url(#clip0)">
<path d="M6.65742 18.9433C2.98918 18.9433 0 15.9645 0 12.2942C0 8.62389 2.98252 5.64508 6.65742 5.64508C10.3257 5.64508 13.3148 8.62389 13.3148 12.2942C13.3148 15.9645 10.3257 18.9433 6.65742 18.9433ZM6.65742 7.64647C4.08766 7.64647 1.99723 9.73429 1.99723 12.3009C1.99723 14.8674 4.08766 16.9552 6.65742 16.9552C9.22718 16.9552 11.3176 14.8674 11.3176 12.3009C11.311 9.73429 9.22053 7.64647 6.65742 7.64647Z" fill="white"/>
<path d="M13.1151 48C9.44688 48 6.4577 45.0212 6.4577 41.3508C6.4577 37.6805 9.44023 34.7017 13.1151 34.7017C16.79 34.7017 19.7725 37.6805 19.7725 41.3508C19.7725 45.0212 16.7834 48 13.1151 48ZM13.1151 36.7031C10.5454 36.7031 8.45493 38.7909 8.45493 41.3575C8.45493 43.9241 10.5454 46.0119 13.1151 46.0119C15.6849 46.0119 17.7753 43.9241 17.7753 41.3575C17.7753 38.7909 15.6849 36.7031 13.1151 36.7031Z" fill="white"/>
<path d="M41.3426 13.2916C37.6744 13.2916 34.6852 10.3128 34.6852 6.64247C34.6852 2.97215 37.6677 -0.00665283 41.3426 -0.00665283C45.0175 -0.00665283 48 2.97215 48 6.64247C48 10.3128 45.0108 13.2916 41.3426 13.2916ZM41.3426 1.99473C38.7728 1.99473 36.6824 4.08256 36.6824 6.64912C36.6824 9.21568 38.7728 11.3035 41.3426 11.3035C43.9124 11.3035 46.0028 9.21568 46.0028 6.64912C46.0028 4.08256 43.9124 1.99473 41.3426 1.99473Z" fill="white"/>
<path d="M35.6838 5.65173H23.9201V7.64647H35.6838V5.65173Z" fill="white"/>
<path d="M32.2619 30.8386H25.8042L18.8072 14.9272H12.4494V12.9325H20.1121L27.109 28.8438H32.2619V30.8386Z" fill="white"/>
<path d="M30.5376 41.0317H18.7739V43.0265H30.5376V41.0317Z" fill="white"/>
<path d="M37.3415 35.8188C33.6733 35.8188 30.6841 32.84 30.6841 29.1697C30.6841 25.4994 33.6666 22.5206 37.3415 22.5206C41.0164 22.5206 43.9989 25.4994 43.9989 29.1697C43.9989 32.84 41.0097 35.8188 37.3415 35.8188ZM37.3415 24.522C34.7717 24.522 32.6813 26.6098 32.6813 29.1763C32.6813 31.7429 34.7717 33.8307 37.3415 33.8307C39.9113 33.8307 42.0017 31.7429 42.0017 29.1763C41.995 26.6031 39.9046 24.522 37.3415 24.522Z" fill="white"/>
</g>
<defs>
<clipPath id="clip0">
<rect width="48" height="48" fill="white"/>
</clipPath>
</defs>
</svg>
