<svg width="36" height="36" viewBox="0 0 36 36" fill="none" xmlns="http://www.w3.org/2000/svg">
<path d="M35.5601 33.4401L25.3227 23.2027C27.3057 20.7532 28.4997 17.6407 28.4997 14.2508C28.4997 6.39388 22.1067 0.000915527 14.2498 0.000915527C6.39289 0.000915527 0 6.39381 0 14.2507C0 22.1077 6.39296 28.5006 14.2499 28.5006C17.6398 28.5006 20.7523 27.3066 23.2018 25.3236L33.4392 35.561C33.7317 35.8535 34.1156 36.0006 34.4997 36.0006C34.8837 36.0006 35.2677 35.8535 35.5602 35.561C36.1467 34.9746 36.1467 34.0266 35.5601 33.4401ZM14.2499 25.5006C8.04592 25.5006 2.99999 20.4547 2.99999 14.2507C2.99999 8.04677 8.04592 3.00084 14.2499 3.00084C20.4538 3.00084 25.4998 8.04677 25.4998 14.2507C25.4998 20.4547 20.4538 25.5006 14.2499 25.5006Z" fill="white"/>
</svg>
