<svg width="22" height="28" viewBox="0 0 22 28" fill="none" xmlns="http://www.w3.org/2000/svg">
<path d="M20.84 15.8C20.9733 15.8 21.08 15.8533 21.16 15.96C21.2667 16.04 21.32 16.1467 21.32 16.28V20.32C21.32 20.4533 21.2667 20.5733 21.16 20.68C21.08 20.76 20.9733 20.8 20.84 20.8H19.12C18.9867 20.8 18.92 20.8667 18.92 21V27.52C18.92 27.6533 18.8667 27.7733 18.76 27.88C18.68 27.96 18.5733 28 18.44 28H13.76C13.6267 28 13.5067 27.96 13.4 27.88C13.32 27.7733 13.28 27.6533 13.28 27.52V21C13.28 20.8667 13.2133 20.8 13.08 20.8H0.8C0.666667 20.8 0.546667 20.76 0.44 20.68C0.36 20.5733 0.32 20.4533 0.32 20.32V17.12C0.32 16.96 0.36 16.76 0.44 16.52L7.64 0.359998C7.74667 0.119998 7.93333 -1.90735e-06 8.2 -1.90735e-06H13.2C13.3867 -1.90735e-06 13.5067 0.0533315 13.56 0.159998C13.64 0.239999 13.64 0.373332 13.56 0.559998L6.88 15.56C6.85333 15.6133 6.85333 15.6667 6.88 15.72C6.90667 15.7733 6.94667 15.8 7 15.8H13.08C13.2133 15.8 13.28 15.7333 13.28 15.6V10.64C13.28 10.5067 13.32 10.4 13.4 10.32C13.5067 10.2133 13.6267 10.16 13.76 10.16H18.44C18.5733 10.16 18.68 10.2133 18.76 10.32C18.8667 10.4 18.92 10.5067 18.92 10.64V15.6C18.92 15.7333 18.9867 15.8 19.12 15.8H20.84Z" fill="#031C3C"/>
</svg>
