<svg width="19" height="29" viewBox="0 0 19 29" fill="none" xmlns="http://www.w3.org/2000/svg">
<path d="M18.08 14.64C18.6133 15.8667 18.88 17.28 18.88 18.88C18.88 20.32 18.64 21.6533 18.16 22.88C17.52 24.5867 16.44 25.92 14.92 26.88C13.4267 27.84 11.6533 28.32 9.6 28.32C7.57333 28.32 5.78667 27.8133 4.24 26.8C2.72 25.7867 1.62667 24.4133 0.96 22.68C0.586667 21.64 0.373333 20.52 0.32 19.32C0.32 19 0.48 18.84 0.8 18.84H5.52C5.84 18.84 6 19 6 19.32C6.10667 20.2 6.25333 20.8533 6.44 21.28C6.68 21.9733 7.06667 22.52 7.6 22.92C8.16 23.2933 8.81333 23.48 9.56 23.48C11.0533 23.48 12.08 22.8267 12.64 21.52C13.0133 20.72 13.2 19.7867 13.2 18.72C13.2 17.4667 13 16.44 12.6 15.64C11.9867 14.3867 10.96 13.76 9.52 13.76C9.22667 13.76 8.92 13.8533 8.6 14.04C8.28 14.2 7.89333 14.44 7.44 14.76C7.33333 14.84 7.22667 14.88 7.12 14.88C6.96 14.88 6.84 14.8 6.76 14.64L4.4 11.32C4.34667 11.24 4.32 11.1467 4.32 11.04C4.32 10.88 4.37333 10.7467 4.48 10.64L10.84 5.08C10.8933 5.02667 10.9067 4.97333 10.88 4.92C10.88 4.86666 10.84 4.84 10.76 4.84H1.36C1.22667 4.84 1.10667 4.8 1 4.72C0.92 4.61333 0.88 4.49333 0.88 4.36V0.479999C0.88 0.346666 0.92 0.239999 1 0.159998C1.10667 0.0533315 1.22667 -1.90735e-06 1.36 -1.90735e-06H18.04C18.1733 -1.90735e-06 18.28 0.0533315 18.36 0.159998C18.4667 0.239999 18.52 0.346666 18.52 0.479999V4.88C18.52 5.09333 18.4267 5.29333 18.24 5.48L13 10.28C12.9467 10.3333 12.92 10.3867 12.92 10.44C12.9467 10.4933 13.0133 10.52 13.12 10.52C15.44 10.9733 17.0933 12.3467 18.08 14.64Z" fill="#031C3C"/>
</svg>
