<svg width="11" height="28" viewBox="0 0 11 28" fill="none" xmlns="http://www.w3.org/2000/svg">
<path d="M5 0.119999C5.13333 0.0399984 5.33333 -1.90735e-06 5.6 -1.90735e-06H10.44C10.5733 -1.90735e-06 10.68 0.0533315 10.76 0.159998C10.8667 0.239999 10.92 0.346666 10.92 0.479999V27.52C10.92 27.6533 10.8667 27.7733 10.76 27.88C10.68 27.96 10.5733 28 10.44 28H5.76C5.62667 28 5.50667 27.96 5.4 27.88C5.32 27.7733 5.28 27.6533 5.28 27.52V5.6C5.28 5.54667 5.25333 5.49333 5.2 5.44C5.14667 5.38667 5.09333 5.37333 5.04 5.4L1.08 6.48L0.92 6.52C0.68 6.52 0.56 6.37333 0.56 6.08L0.44 2.64C0.44 2.37333 0.56 2.18667 0.8 2.08L5 0.119999Z" fill="#031C3C"/>
</svg>
