<svg width="20" height="29" viewBox="0 0 20 29" fill="none" xmlns="http://www.w3.org/2000/svg">
<path d="M8.32 23.92C8.26667 23.9733 8.25333 24.0267 8.28 24.08C8.30667 24.1333 8.36 24.16 8.44 24.16H19.28C19.4133 24.16 19.52 24.2133 19.6 24.32C19.7067 24.4 19.76 24.5067 19.76 24.64V28.52C19.76 28.6533 19.7067 28.7733 19.6 28.88C19.52 28.96 19.4133 29 19.28 29H1.28C1.14667 29 1.02667 28.96 0.92 28.88C0.84 28.7733 0.8 28.6533 0.8 28.52V24.84C0.8 24.6 0.88 24.4 1.04 24.24C2.34667 22.96 3.68 21.5733 5.04 20.08C6.4 18.56 7.25333 17.6133 7.6 17.24C8.34667 16.36 9.10667 15.52 9.88 14.72C12.3067 12.0267 13.52 10.0267 13.52 8.72C13.52 7.78666 13.1867 7.02667 12.52 6.44C11.8533 5.82667 10.9867 5.52 9.92 5.52C8.85333 5.52 7.98667 5.82667 7.32 6.44C6.65333 7.02667 6.32 7.81333 6.32 8.8V9.8C6.32 9.93333 6.26667 10.0533 6.16 10.16C6.08 10.24 5.97333 10.28 5.84 10.28H1.12C0.986667 10.28 0.866667 10.24 0.76 10.16C0.68 10.0533 0.64 9.93333 0.64 9.8V7.92C0.72 6.48 1.17333 5.21333 2 4.12C2.82667 3 3.92 2.14667 5.28 1.56C6.66667 0.973333 8.21333 0.68 9.92 0.68C11.8133 0.68 13.4533 1.04 14.84 1.76C16.2533 2.45333 17.3333 3.4 18.08 4.6C18.8533 5.8 19.24 7.13333 19.24 8.6C19.24 9.72 18.96 10.8667 18.4 12.04C17.84 13.2133 17 14.48 15.88 15.84C15.0533 16.88 14.16 17.9067 13.2 18.92C12.24 19.9333 10.8133 21.4 8.92 23.32L8.32 23.92Z" fill="#031C3C"/>
</svg>
