<svg width="20" height="29" viewBox="0 0 20 29" fill="none" xmlns="http://www.w3.org/2000/svg">
<path d="M18.64 15.24C19.04 16.5467 19.24 17.8133 19.24 19.04C19.24 20.4 19.0267 21.6267 18.6 22.72C17.9867 24.4267 16.9067 25.7867 15.36 26.8C13.8133 27.7867 12 28.28 9.92 28.28C7.89333 28.28 6.10667 27.8 4.56 26.84C3.04 25.8533 1.96 24.52 1.32 22.84C1.05333 22.1467 0.853333 21.4133 0.72 20.64V20.56C0.72 20.2667 0.88 20.12 1.2 20.12H6.04C6.30667 20.12 6.48 20.2667 6.56 20.56C6.58667 20.72 6.62667 20.8533 6.68 20.96C6.73333 21.0667 6.77333 21.16 6.8 21.24C7.06667 21.9333 7.46667 22.4667 8 22.84C8.53333 23.2133 9.16 23.4 9.88 23.4C10.6267 23.4 11.28 23.2 11.84 22.8C12.4 22.4 12.8133 21.84 13.08 21.12C13.3467 20.5867 13.48 19.8933 13.48 19.04C13.48 18.2667 13.36 17.5733 13.12 16.96C12.9333 16.2667 12.56 15.7333 12 15.36C11.44 14.9867 10.7867 14.8 10.04 14.8C9.29333 14.8 8.6 14.9733 7.96 15.32C7.32 15.6667 6.89333 16.12 6.68 16.68C6.6 16.9467 6.42667 17.08 6.16 17.08H1.24C1.10667 17.08 0.986667 17.04 0.88 16.96C0.8 16.8533 0.76 16.7333 0.76 16.6V0.479999C0.76 0.346666 0.8 0.239999 0.88 0.159998C0.986667 0.0533315 1.10667 -1.90735e-06 1.24 -1.90735e-06H17.76C17.8933 -1.90735e-06 18 0.0533315 18.08 0.159998C18.1867 0.239999 18.24 0.346666 18.24 0.479999V4.36C18.24 4.49333 18.1867 4.61333 18.08 4.72C18 4.8 17.8933 4.84 17.76 4.84H6.6C6.46667 4.84 6.4 4.90667 6.4 5.04L6.36 10.96C6.36 11.1467 6.44 11.1867 6.6 11.08C7.8 10.3067 9.18667 9.92 10.76 9.92C12.6267 9.92 14.2533 10.4 15.64 11.36C17.0533 12.2933 18.0533 13.5867 18.64 15.24Z" fill="#031C3C"/>
</svg>
